<svg width="85" height="54" viewBox="0 0 85 54" fill="none" xmlns="http://www.w3.org/2000/svg">
<path fill-rule="evenodd" clip-rule="evenodd" d="M17.1968 31.1758L21.0168 42.4239L22.9406 35.7469L21.9959 34.718C21.5684 34.0966 21.4788 33.558 21.7132 33.0885C22.2234 32.0804 23.2784 32.2668 24.2644 32.2668C25.2987 32.2668 26.5744 32.0735 26.8984 33.3647C27.0088 33.7997 26.8709 34.2485 26.5675 34.718L25.6228 35.7469L27.5466 42.4239L31.008 31.1758C33.5041 33.4268 40.8889 33.8756 43.6402 35.4085C44.509 35.8919 45.295 36.5133 45.9225 37.3488C46.8809 38.6124 47.467 40.2696 47.6256 42.3687L48.1979 50.9514C48.06 52.436 47.2188 53.2922 45.557 53.4234H24.2782H2.64089C0.979128 53.2922 0.137905 52.436 0 50.9514L0.572307 42.3687C0.730898 40.2696 1.317 38.6124 2.27544 37.3488C2.9098 36.5133 3.68897 35.8988 4.56467 35.4085C7.31588 33.8756 14.7007 33.4268 17.1968 31.1758ZM51.6594 22.4895L53.8314 22.4342L55.6379 22.3859C53.528 15.8884 54.2382 9.92256 59.3062 4.85437C60.1681 7.63704 62.0988 9.93637 65.374 11.635C66.9462 12.8019 68.4631 14.2105 69.9318 15.8332C70.1938 14.7629 69.2009 13.4579 67.9942 12.1114C69.1113 12.6638 70.1318 13.4372 70.8627 14.9217C71.7039 16.641 71.697 18.098 71.4143 19.9623C71.2833 20.8323 71.0695 21.6402 70.773 22.3859H73.7725C76.9374 15.5984 74.9309 5.52414 68.4562 1.25692C66.4704 -0.0481043 65.0431 0.000229889 62.7125 0.000229889C60.044 0.000229889 58.6787 0.0830885 56.3964 1.59526C53.0246 3.82554 50.956 7.68538 50.0872 13.0505C49.908 15.7227 49.7907 20.342 51.6594 22.4895ZM59.913 34.8423L61.5334 29.2079L60.7404 28.3379C60.3819 27.8131 60.306 27.3574 60.506 26.9638C60.9335 26.1145 61.8299 26.2733 62.6573 26.2733C63.5261 26.2733 64.6018 26.1076 64.8776 27.1986C64.9672 27.5646 64.8569 27.9443 64.6018 28.3379L63.8088 29.2079L65.4292 34.8423L62.6711 37.0243L59.913 34.8423ZM74.4137 32.8882C73.1864 30.4232 71.6281 28.3241 69.8146 26.3631C73.2278 27.6889 76.7168 28.9939 79.3025 30.6165C80.9436 31.6454 81.7986 32.4256 82.4605 33.6754C83.874 36.3338 84.0257 38.716 84.2395 41.5953L84.736 46.5737H62.6711H51.8731C51.7421 43.4942 51.88 41.2086 50.8595 38.2533C50.432 37.0174 49.8459 35.9126 49.115 34.939C48.6254 34.2899 48.0531 33.7099 47.4188 33.1782C46.8258 32.6811 46.2052 32.2668 45.5777 31.9146C45.3157 31.7696 45.0399 31.6315 44.7503 31.5073C45.1226 31.2173 45.5501 30.9272 46.0466 30.6165C48.6323 28.9939 52.1144 27.6889 55.5345 26.3631C53.721 28.331 52.1627 30.4232 50.9354 32.8882L54.4933 32.7985L62.678 39.9243L70.8627 32.7985L74.4137 32.8882ZM15.2454 15.191C14.9007 15.2255 14.6387 15.3084 14.4456 15.4396C14.3215 15.5224 14.2318 15.626 14.1698 15.7572C14.1008 15.9022 14.0732 16.0817 14.0801 16.282C14.1008 16.9103 14.4318 17.7458 15.08 18.7056L15.0937 18.7194L17.2313 22.1166C18.0863 23.4769 18.9758 24.8578 20.0859 25.8729C21.1409 26.8396 22.4234 27.4955 24.1128 27.4955C25.9469 27.5024 27.2846 26.8188 28.374 25.7969C29.5118 24.7267 30.4219 23.2559 31.3114 21.7852L33.711 17.8287C34.2005 16.717 34.3453 16.0334 34.1867 15.7089C34.0971 15.5224 33.7661 15.4534 33.2283 15.481C32.856 15.5915 32.4216 15.5777 31.9113 15.4396L32.8835 11.704C28.4844 11.6488 25.478 10.8823 21.9201 8.60373C20.7479 7.858 20.3962 7.00179 19.2309 7.08465C18.3483 7.25727 17.6036 7.65085 17.0175 8.2861C16.4521 8.89373 16.0246 9.72923 15.7488 10.7926L16.459 15.2117C15.9763 15.3153 15.5764 15.2946 15.2454 15.191ZM34.3522 14.2036C34.8556 14.3555 35.221 14.6455 35.4417 15.0943C35.8002 15.8193 35.6554 16.8965 34.9797 18.4363C34.9659 18.4639 34.9521 18.4915 34.9383 18.5192L32.5043 22.5309C31.5596 24.0845 30.6081 25.6381 29.3256 26.8396C27.9948 28.0893 26.3468 28.9248 24.099 28.9179C22.0028 28.911 20.4169 28.1101 19.1275 26.9224C17.8794 25.7831 16.9348 24.3193 16.0315 22.883L13.9009 19.4858C13.1079 18.3051 12.7011 17.221 12.6735 16.3303C12.6597 15.9022 12.7356 15.5155 12.8942 15.1703C13.0596 14.8112 13.3148 14.5074 13.6664 14.2726C13.8319 14.1622 14.025 14.0655 14.2318 13.9895C14.1008 12.1597 14.0526 9.88804 14.1422 7.98229C14.1905 7.51966 14.2732 7.05703 14.4042 6.5944C14.9489 4.64032 16.3211 3.07291 18.0104 1.98884C18.6103 1.60907 19.2585 1.29145 19.9549 1.04287C24.0576 -0.441683 29.4911 0.366189 32.4009 3.52173C33.5869 4.80604 34.3315 6.51154 34.4901 8.76254L34.3522 14.2036Z" fill="white"/>
</svg>
