<svg width="44" height="39" viewBox="0 0 44 39" fill="none" xmlns="http://www.w3.org/2000/svg">
<path d="M21.6667 0C21.6667 0 8.26367 11.57 0.7735 17.836C0.333667 18.2347 0 18.8153 0 19.5C0 20.6982 0.9685 21.6667 2.16667 21.6667H6.5V36.8333C6.5 38.0315 7.4685 39 8.66667 39H15.1667C16.3648 39 17.3333 38.0293 17.3333 36.8333V28.1667H26V36.8333C26 38.0293 26.9685 39 28.1667 39H34.6667C35.8648 39 36.8333 38.0315 36.8333 36.8333V21.6667H41.1667C42.3648 21.6667 43.3333 20.6982 43.3333 19.5C43.3333 18.8153 42.9997 18.2347 42.5035 17.836C35.0653 11.57 21.6667 0 21.6667 0Z" fill="white"/>
</svg>
