<svg width="38" height="51" viewBox="0 0 38 51" fill="none" xmlns="http://www.w3.org/2000/svg">
<g clip-path="url(#clip0_3:41)">
<path d="M33.8255 26.8186H17.1155C16.3964 26.8186 15.8134 26.228 15.8134 25.4996C15.8134 24.7708 16.3964 24.1802 17.1155 24.1802H33.8247L28.3675 17.911C27.8933 17.3673 27.9434 16.5368 28.4796 16.0562C29.0163 15.5752 29.836 15.6258 30.3105 16.1695L37.6748 24.6292C38.1154 25.1339 38.1039 25.8864 37.6702 26.3766L30.3101 34.8301C29.836 35.3742 29.0159 35.4248 28.4792 34.9434C27.943 34.4628 27.8929 33.6319 28.3671 33.0882L33.8255 26.8186ZM29.3117 41.3499C29.3117 40.6211 29.9005 40.0305 30.6267 40.0305C31.3532 40.0305 31.942 40.6211 31.942 41.3499V47.2609C31.942 48.2881 31.5212 49.2236 30.8464 49.9006C30.1707 50.5779 29.2381 50.9996 28.2148 50.9996H3.72763C2.70356 50.9996 1.77051 50.5787 1.09483 49.9014C0.420388 49.2249 0 48.2906 0 47.2609V3.73909C0 2.70979 0.419147 1.77471 1.094 1.09736C1.76886 0.420435 2.70108 0 3.72763 0H28.2144C29.2401 0 30.1719 0.42168 30.8468 1.09819C31.5225 1.77595 31.9416 2.71228 31.9416 3.73909V9.64966C31.9416 10.3781 31.3528 10.9687 30.6263 10.9687C29.9001 10.9687 29.3113 10.3781 29.3113 9.64966V3.73909C29.3113 3.43943 29.1868 3.16426 28.9865 2.96338C28.7871 2.76333 28.5131 2.6384 28.214 2.6384H3.72763C3.42724 2.6384 3.15291 2.76292 2.95389 2.96296C2.75404 3.1626 2.63032 3.43777 2.63032 3.73909V47.2609C2.63032 47.5614 2.75486 47.8357 2.9543 48.0358C3.15456 48.2367 3.42889 48.3616 3.72763 48.3616H28.2144C28.5123 48.3616 28.7858 48.2363 28.9861 48.0354C29.1868 47.8345 29.3117 47.5597 29.3117 47.2609V41.3499Z" fill="white"/>
</g>
<defs>
<clipPath id="clip0_3:41">
<rect width="38" height="51" fill="white"/>
</clipPath>
</defs>
</svg>
