<svg width="748" height="754" viewBox="0 0 748 754" fill="none" xmlns="http://www.w3.org/2000/svg">
<g clip-path="url(#clip0)">
<path d="M-271.401 -60.0942C-271.589 -59.6551 -271.652 122.384 -271.589 344.381L-271.401 748.041L-271.213 343.879L-271.087 -60.2197H347.33H965.748L965.937 343.754L966.062 747.727V343.628V-60.5333L347.456 -60.7215C-147.09 -60.847 -271.213 -60.7215 -271.401 -60.0942Z" fill="white"/>
<path d="M379.961 0.376349C365.591 2.4464 357.308 4.83009 346.703 10.0993C321.038 22.7078 301.773 47.9875 296.376 76.09L295.309 81.6729L293.364 81.2965C292.36 81.1083 289.536 80.5438 287.089 80.0419C256.027 73.33 222.517 81.8611 197.228 102.938C179.721 117.616 166.606 139.509 161.899 161.966C158.134 179.969 159.138 198.725 164.723 216.226L166.982 223.314H173.571C179.658 223.314 180.223 223.252 179.783 222.185C177.462 216.853 174.261 206.001 173.195 199.917C166.919 163.22 182.796 126.399 213.669 105.761C245.108 84.7466 286.399 84.8093 317.9 105.823C339.487 120.188 353.982 142.645 358.438 168.427C359.504 174.825 359.63 177.648 359.379 186.932C358.94 200.607 357.12 209.138 351.723 222.185C351.284 223.252 351.849 223.314 357.873 223.314H364.524L366.721 216.54C373.184 196.467 373.623 176.519 368.039 155.756C366.407 149.545 366.219 149.985 371.49 147.977C406.882 134.428 447.357 147.099 469.257 178.652C477.226 190.131 482.435 204.496 483.564 218.045L484.004 223.314H489.526H495.111L494.734 219.363C493.479 205.813 489.902 193.079 484.129 182.039C479.611 173.382 474.654 166.67 467.563 159.457C463.547 155.379 461.852 153.184 462.229 152.682C472.457 138.693 477.791 127.026 481.117 111.657C482.811 103.565 482.686 83.492 480.803 75.1491C472.395 37.3236 444.156 9.34654 406.694 1.81911C400.92 0.627266 384.291 -0.250938 379.961 0.376349ZM407.007 13.0475C423.323 17.1876 435.873 24.1505 447.168 35.4417C463.358 51.563 471.516 71.3854 471.453 94.4068C471.453 107.894 469.131 117.993 463.296 130.35C461.225 134.741 454.259 145.719 453.067 146.472C452.753 146.66 450.494 145.719 448.047 144.276C442.148 140.826 436.752 138.442 429.723 136.247C418.428 132.609 414.349 132.044 400.669 132.044C389.186 132.107 387.492 132.232 380.589 133.863C376.447 134.804 370.674 136.561 367.725 137.69L362.391 139.697L359.253 133.801C348.837 114.292 332.647 98.7351 312.378 88.6985C305.412 85.2484 305.601 85.7503 307.232 77.9092C312.315 52.8176 328.881 31.2389 351.849 19.6968C357.936 16.6231 367.223 13.5494 374.314 12.2321C381.718 10.9148 400.167 11.3539 407.007 13.0475Z" fill="white"/>
<path d="M445.662 48.4266L444.156 50.2458L449.114 55.0759C456.832 62.7915 460.534 70.1935 461.915 80.7947C462.543 85.4366 462.48 87.2558 461.601 92.4622C461.036 95.9123 460.66 98.7979 460.848 98.9233C460.974 99.0488 462.041 99.2997 463.233 99.5506L465.429 99.8642L466.308 96.5396C467.437 92.2741 467.437 78.4737 466.308 74.6473C463.107 63.5443 456.33 53.0686 448.863 47.7993L447.106 46.6075L445.662 48.4266Z" fill="white"/>
<path d="M340.428 173.382C340.302 173.759 339.863 176.895 339.487 180.345C337.792 194.647 332.584 208.385 324.301 220.617L322.481 223.314H327.689H332.898L334.529 220.617C339.487 212.713 343.942 201.673 346.264 191.636C347.519 186.054 349.15 174.449 348.711 174.01C348.586 173.884 346.703 173.508 344.57 173.257C341.808 172.881 340.553 172.881 340.428 173.382Z" fill="white"/>
<path d="M463.986 190.256L462.354 191.699L465.366 195.714C470.763 202.928 474.34 212.651 474.403 220.303V223.314H476.913H479.423V219.363C479.423 214.282 477.478 206.691 474.779 201.046C472.646 196.592 467.249 188.814 466.245 188.814C465.931 188.814 464.927 189.441 463.986 190.256Z" fill="white"/>
<path d="M98.8339 237.428C87.3504 239.938 78.6279 245.897 72.1645 255.683C67.6463 262.583 65.7638 268.981 65.45 278.829C65.0735 289.117 66.0775 294.261 70.0309 302.353C73.8587 310.068 80.6987 317.157 87.8524 320.732C107.996 330.706 133.159 324.496 144.517 306.681C154.432 291.187 154.181 269.985 143.89 254.553C136.359 243.199 122.742 236.362 107.745 236.55C104.921 236.55 100.905 236.989 98.8339 237.428ZM116.593 261.955C122.68 265.782 125.817 272.996 125.378 282.593C125.19 287.549 124.876 288.929 123.119 292.504C116.655 305.552 100.089 305.552 93.5628 292.504C91.4292 288.239 90.6134 281.84 91.492 276.634C92.8098 268.918 96.3866 263.712 102.285 260.952C106.364 259.07 112.514 259.509 116.593 261.955Z" fill="white"/>
<path d="M0 281.025V323.681H30.4346H60.8691V312.703V301.725H43.6124H26.3557V270.047V238.369H13.1779H0V281.025Z" fill="white"/>
<path d="M161.272 280.962V323.681H182.231C205.449 323.681 210.971 323.116 218.439 319.98C230.048 315.087 237.703 306.179 241.092 293.633C242.912 286.921 242.912 275.128 241.092 268.291C237.264 254.114 227.789 244.517 213.356 240.189C208.9 238.871 207.332 238.746 184.992 238.495L161.272 238.307V280.962ZM206.139 262.52C207.896 263.335 209.716 264.402 210.218 264.841C217.811 271.239 218.69 287.486 211.912 295.202C207.708 299.969 205.637 300.722 195.66 300.973L187 301.224V281.088V260.952H195.032C202.186 260.952 203.315 261.14 206.139 262.52Z" fill="white"/>
<path d="M250.379 249.347V260.324H267.322C276.672 260.324 284.265 260.513 284.265 260.764C284.265 261.077 276.484 271.239 267.008 283.471L249.752 305.615V314.648V323.681H284.893H320.034V312.703V301.725H301.836C291.858 301.725 283.638 301.475 283.638 301.224C283.638 300.91 291.419 290.685 300.894 278.453L318.151 256.247V247.277V238.369H284.265H250.379V249.347Z" fill="white"/>
<path d="M327.564 281.025V323.681H340.428H353.292V281.025V238.369H340.428H327.564V281.025Z" fill="white"/>
<path d="M391.006 239.749C390.692 240.565 383.287 259.258 374.628 281.339C365.905 303.419 358.626 321.987 358.438 322.614C358.187 323.618 359.002 323.681 371.176 323.555L384.229 323.367L386.801 316.153L389.374 308.939H404.121H418.805L421.315 316.279L423.888 323.681H437.254C444.658 323.681 450.557 323.43 450.432 323.116C450.369 322.802 442.776 303.607 433.614 280.46L416.985 238.369H404.246C391.633 238.369 391.508 238.369 391.006 239.749ZM408.011 277.575L411.526 287.925H403.995C399.854 287.925 396.591 287.674 396.716 287.423C396.842 287.172 398.41 282.468 400.293 277.073C402.176 271.678 403.87 267.225 404.058 267.225C404.246 267.225 406.003 271.867 408.011 277.575Z" fill="white"/>
<path d="M454.95 281.025V323.681H467.814H480.678V313.017V302.353H484.38H488.02L494.483 313.017L500.947 323.681H514.689H528.432L527.679 322.3C527.24 321.548 523.726 315.714 519.772 309.378C515.882 303.043 512.681 297.585 512.681 297.272C512.681 296.958 512.932 296.707 513.246 296.707C513.623 296.707 515.505 295.139 517.576 293.257C523.977 287.361 526.8 280.147 526.738 270.047C526.675 264.214 525.483 258.882 523.286 254.616C521.09 250.225 515.505 244.956 510.673 242.572C503.018 238.808 499.19 238.369 475.658 238.369H454.95V281.025ZM496.366 261.893C502.327 265.405 502.264 275.442 496.24 279.143C494.483 280.209 493.04 280.398 487.455 280.398H480.678V270.298V260.199L487.455 260.387C492.789 260.575 494.609 260.889 496.366 261.893Z" fill="white"/>
<path d="M537.154 281.025V323.681H549.705H562.255L562.38 304.548L562.569 285.479L577.002 304.548L591.434 323.681H601.914H612.456V281.025V238.369H599.906H587.356L587.23 257.564L587.042 276.822L572.609 257.564L558.176 238.369H547.697H537.154V281.025Z" fill="white"/>
<path d="M625.007 281.025V323.681H638.185H651.363V281.025V238.369H638.185H625.007V281.025Z" fill="white"/>
<path d="M688.574 239.436C688.323 240.063 680.981 258.756 672.196 281.025C663.411 303.294 656.069 321.987 655.943 322.614C655.63 323.618 656.445 323.681 668.682 323.555L681.797 323.367L684.307 316.153L686.817 308.939H701.564H716.31L718.821 316.279L721.331 323.681H734.697C745.176 323.681 748.063 323.492 747.812 322.865C747.686 322.489 740.093 303.294 730.994 280.209L714.491 238.369H701.752C690.143 238.369 688.951 238.495 688.574 239.436ZM705.454 277.575L709.031 287.925H701.564H694.096L697.673 277.575C699.619 271.867 701.376 267.225 701.564 267.225C701.752 267.225 703.509 271.867 705.454 277.575Z" fill="white"/>
<path d="M276.672 329.012C276.484 329.138 274.727 329.702 272.719 330.204C269.581 331.02 266.13 331.083 247.116 330.518C232.307 330.142 223.208 330.142 218.941 330.581C199.237 332.588 186.059 340.366 182.231 352.41C180.662 357.491 181.227 366.211 183.486 370.602C190.389 384.088 207.457 387.037 226.345 378.004C232.997 374.742 234.754 372.86 233.373 370.288C231.805 367.34 230.236 367.34 223.898 370.413C216.556 373.926 208.649 375.996 204.194 375.557C197.166 374.804 191.267 370.602 189.636 365.144C185.996 353.163 196.036 342.938 211.787 342.374C218.062 342.186 262.553 344.506 263.243 345.071C263.557 345.447 263.494 345.636 263.055 345.636C262.616 345.636 261.047 346.2 259.478 346.953C255.023 349.023 253.203 353.79 247.869 377.063L245.171 388.73L237.641 389.169C233.499 389.358 228.228 389.546 225.906 389.546C221.953 389.546 221.639 389.671 221.262 391.051C221.074 391.867 220.698 392.996 220.509 393.56C219.882 395.191 224.212 396.383 233.875 397.199L242.912 397.951L242.472 399.833C239.46 413.947 233.311 425.678 226.91 429.629C222.329 432.452 214.862 432.452 212.603 429.629C211.222 427.999 211.159 425.238 212.352 422.855C212.854 421.914 215.74 418.777 218.815 415.892C225.718 409.368 226.283 408.553 224.525 406.608C222.455 404.475 220.76 404.914 215.74 408.866C209.591 413.759 203.692 420.283 201.621 424.611C199.174 429.504 199.111 435.902 201.433 439.29C207.896 448.762 223.333 444.873 238.143 430.006C245.485 422.667 249.94 415.641 254.144 404.601L256.403 398.641L260.231 398.265C264.436 397.889 269.33 395.442 270.522 393.184C273.409 387.789 272.217 386.409 265.126 387.099C262.365 387.35 260.043 387.476 259.917 387.35C259.729 387.225 261.988 378.568 264.812 368.155C269.644 350.466 270.146 347.643 268.954 344.946C268.64 344.193 268.954 343.816 270.146 343.503C272.154 343.001 280.374 334.784 280.876 332.776C281.378 330.769 280.123 328.699 278.366 328.699C277.613 328.699 276.798 328.824 276.672 329.012Z" fill="white"/>
<path d="M411.337 330.832C403.933 334.031 390.755 358.558 384.04 381.767C382.911 385.531 381.718 388.793 381.279 389.044C380.903 389.295 379.271 389.546 377.64 389.546C375.381 389.546 374.502 389.859 373.812 390.863C371.866 393.56 374.188 397.073 377.828 397.073C379.836 397.073 380.15 397.261 379.836 398.14C379.271 399.708 365.968 417.46 362.391 421.412C359.316 424.799 356.681 426.556 355.363 426.117C354.924 425.928 355.363 424.36 356.743 421.349C363.269 407.173 360.257 392.619 349.527 386.786C336.977 379.948 317.586 389.609 308.613 407.11C304.722 414.763 291.607 430.382 286.587 433.456C280.186 437.408 280.563 434.209 290.352 404.099C293.552 394.188 294.933 388.981 294.682 387.915C294.117 385.657 292.046 385.155 287.654 386.096C282.696 387.162 282.194 387.413 281.002 389.42C279.621 391.867 269.33 424.674 268.703 428.814C267.134 438.662 273.095 445.123 282.194 443.43C287.403 442.426 291.733 439.729 298.51 433.205C304.095 427.81 304.973 427.246 304.973 428.563C304.973 431.135 308.613 437.659 311.374 440.042C317.775 445.437 327.878 446.253 337.604 442.112C338.796 441.611 341.495 439.917 343.503 438.349C347.142 435.589 347.331 435.526 349.339 436.341C352.288 437.596 354.547 437.408 358.124 435.651C361.387 434.02 369.168 426.43 373.373 420.785C374.565 419.154 375.757 417.774 375.945 417.774C376.196 417.774 376.196 418.966 376.071 420.471C375.632 424.423 376.949 432.076 378.769 435.777C381.718 441.924 388.056 445.5 394.269 444.496C400.293 443.493 410.082 436.028 417.989 426.179C419.809 423.984 421.378 422.227 421.44 422.353C421.566 422.478 420.562 426.493 419.181 431.323C417.863 436.216 416.922 440.732 417.11 441.485C417.675 443.743 420.75 444.308 425.645 442.928C427.966 442.301 430.037 441.673 430.163 441.485C430.288 441.36 432.359 437.471 434.681 432.829C442.274 417.899 452.942 403.095 459.091 399.018C465.806 394.564 470.7 398.391 466.182 404.538C464.362 407.047 460.848 409.431 453.506 413.383C446.478 417.146 445.286 418.464 445.913 421.788C446.353 424.235 450.871 433.581 453.506 437.345C455.954 440.983 460.597 443.618 464.362 443.618C469.445 443.618 473.712 441.109 481.117 433.707L487.581 427.309L488.271 429.88C489.275 433.707 491.597 437.408 494.734 440.168C502.704 447.131 517.262 446.064 527.24 437.784C530.126 435.401 530.189 435.338 532.385 436.279C533.578 436.781 535.397 437.22 536.339 437.22C540.355 437.22 547.508 431.95 553.47 424.486C554.976 422.541 556.356 421.098 556.482 421.224C556.607 421.349 556.419 422.917 555.98 424.674C554.725 429.88 555.039 435.526 556.733 438.6C558.804 442.363 560.937 443.681 565.33 443.994C568.342 444.183 569.723 443.994 572.421 442.74C576.625 440.795 582.398 435.463 587.105 429.19C589.113 426.556 590.933 424.109 591.184 423.796C591.435 423.545 591.497 425.489 591.309 428.187C590.933 434.02 591.748 437.596 594.07 440.419C595.89 442.552 599.969 444.684 602.228 444.747C607.938 444.81 614.966 441.046 623.25 433.456L627.454 429.629L628.395 431.135C629.901 433.393 633.917 435.338 637.055 435.338C644.209 435.338 652.366 427.81 663.223 411.25C667.239 405.04 668.117 402.342 667.176 399.018C665.67 394.188 665.293 394.439 658.077 405.165C645.589 423.608 638.749 429.88 634.796 426.618C632.788 424.925 633.039 422.917 635.926 417.899C639.691 411.438 641.761 405.73 642.452 400.084C643.456 392.18 641.573 385.782 638.247 385.782C636.428 385.782 630.403 392.745 627.956 397.638C625.069 403.409 624.191 407.863 624.505 415.139L624.756 421.098L620.049 426.117C613.084 433.519 608.001 436.279 605.679 433.958C604.675 432.954 604.738 427.559 605.867 422.353C606.369 420.032 608.629 411.752 610.888 404.036C613.147 396.258 614.966 389.295 614.966 388.542C614.966 386.221 613.46 385.594 609.193 386.033C602.667 386.723 602.228 387.162 595.513 400.586C586.979 417.648 577.127 431.762 572.421 433.519C567.714 435.338 568.154 430.069 574.68 406.483C577.943 394.815 579.449 388.166 579.198 387.35C578.759 386.221 578.194 386.096 574.303 386.221C571.919 386.284 568.907 386.723 567.714 387.225C565.706 388.103 565.455 388.479 564.138 393.56C562.82 398.453 562.13 399.708 557.047 406.671C546.504 420.973 540.355 427.434 538.472 426.305C538.158 426.117 538.911 423.733 540.041 420.973C547.885 402.97 540.857 385.97 525.043 384.716C518.956 384.214 513.058 386.033 505.214 390.863C503.206 392.118 497.056 398.516 494.923 401.652C493.981 403.095 492.224 406.106 491.032 408.364C489.902 410.623 487.079 414.888 484.757 417.774C477.101 427.497 471.579 432.327 468.441 432.327C466.182 432.327 463.547 429.629 461.664 425.427C458.903 419.091 458.84 419.279 462.605 417.397C471.328 413.006 478.482 406.922 481.054 401.652C482.623 398.265 482.498 393.435 480.678 390.487C478.984 387.789 474.089 385.155 470.575 385.155C462.794 385.155 451.185 393.498 442.839 405.04C441.772 406.545 440.831 407.612 440.705 407.486C440.58 407.361 440.956 405.353 441.584 403.095C442.399 399.833 443.403 398.077 445.725 395.317C453.757 385.908 461.225 374.93 464.676 367.277C470.889 353.728 472.144 339.551 467.814 333.027C465.366 329.263 463.672 329.577 457.962 334.909C446.792 345.322 439.074 361.192 430.288 391.49C428.343 398.202 427.778 399.331 422.946 406.232C415.667 416.519 411.588 421.726 406.38 427.058C399.854 433.77 395.9 435.463 392.763 432.891C391.32 431.7 391.257 431.449 391.257 421.914V412.191L393.453 409.18C394.645 407.549 397.406 403.534 399.54 400.272C401.736 397.01 403.619 394.25 403.682 394.125C403.807 394.062 406.317 393.247 409.266 392.431C419.056 389.546 426.084 385.782 426.084 383.273C426.084 379.76 421.754 379.258 414.161 381.956C408.576 383.9 408.513 383.837 410.71 379.509C412.153 376.686 415.291 366.085 416.42 360.377C417.173 356.676 417.55 351.595 417.55 345.636C417.612 337.105 417.487 336.352 416.044 333.466C415.165 331.773 414.161 330.267 413.847 330.204C413.471 330.079 412.341 330.393 411.337 330.832ZM404.748 366.65C404.121 371.605 402.238 378.129 399.916 383.398C398.787 386.033 397.971 386.974 396.842 387.225C396.026 387.35 395.336 387.288 395.336 387.099C395.336 386.911 396.214 383.022 397.218 378.568C399.101 370.351 400.544 365.395 403.054 358.495L404.435 354.731L404.874 358.495C405.062 360.565 404.999 364.203 404.748 366.65ZM344.695 394.439C345.636 395.317 346.64 397.011 347.017 398.265C347.519 400.147 347.331 400.774 345.448 403.911C341.871 409.682 340.679 414.073 340.804 420.785L340.93 426.618L338.42 429.567C334.215 434.585 331.078 436.592 327.627 436.592C325.179 436.592 324.301 436.279 322.92 434.899C320.724 432.703 320.347 431.072 320.41 424.36C320.536 415.202 324.677 404.914 331.141 397.701C336.224 391.992 340.867 390.926 344.695 394.439ZM525.42 392.87C527.867 393.937 528.871 395.129 529.938 398.14C530.691 400.272 530.628 400.586 528.683 403.597C525.043 409.368 523.788 413.571 523.663 420.722L523.6 427.058L521.153 430.006C516.635 435.526 510.799 437.972 506.908 435.902C504.9 434.836 503.268 430.508 503.268 425.928C503.268 419.907 504.775 414.073 507.912 407.361C510.171 402.593 511.677 400.461 515.066 397.073C517.388 394.752 520.023 392.682 520.902 392.494C521.717 392.369 522.659 392.18 522.91 392.118C523.161 392.118 524.29 392.431 525.42 392.87Z" fill="white"/>
<path d="M526.738 354.355C524.73 355.672 522.408 357.429 521.655 358.244C519.207 360.941 517.513 365.709 517.45 369.974C517.388 373.487 517.576 374.114 518.894 375.181C519.835 375.996 521.153 376.373 522.345 376.247C524.165 376.059 524.353 375.808 524.792 372.923C526.047 365.521 529.373 360.44 534.017 358.558C536.527 357.554 536.59 357.491 536.15 355.17C535.899 353.916 535.397 352.661 535.021 352.41C533.389 351.281 530.314 351.971 526.738 354.355Z" fill="white"/>
<path d="M288.658 361.443C286.901 363.325 284.767 367.967 284.767 369.849C284.767 371.982 286.461 373.738 290.226 375.495C295.435 377.941 298.761 377.314 300.329 373.55C301.334 371.041 301.459 367.403 300.581 365.709C299.827 364.329 292.548 360.063 290.98 360.063C290.415 360.063 289.411 360.691 288.658 361.443Z" fill="white"/>
<path d="M94.4413 386.158C91.4292 386.723 89.7349 387.413 88.9819 388.354C88.3544 389.044 85.0285 398.453 81.4517 409.18C74.298 431.198 73.545 435.087 75.804 439.541C77.4356 442.677 80.2594 444.12 84.7148 444.12C90.9272 444.12 98.5201 438.662 106.929 428.187C109.313 425.238 111.384 422.917 111.572 423.043C111.698 423.168 111.321 425.05 110.694 427.12C107.305 439.29 115.777 447.758 126.131 442.552C132.908 439.102 142.823 428.814 150.416 417.46C156.503 408.302 158.762 404.35 159.703 401.276C160.456 398.704 160.456 398.202 159.264 395.881C158.573 394.439 157.82 393.309 157.569 393.309C157.256 393.309 154.557 397.073 151.545 401.59C135.669 425.489 123.307 438.851 124.123 431.26C124.248 430.257 127.323 420.408 130.963 409.368C138.054 387.915 138.242 386.597 134.916 385.782C134.038 385.531 131.653 385.782 129.582 386.221C125.001 387.225 123.558 388.73 119.416 396.76C113.643 407.988 99.9007 426.744 94.0648 431.386C91.1782 433.644 89.1074 434.083 89.1074 432.327C89.1074 431.762 92.0567 422.165 95.6963 411.062C99.3359 399.959 102.285 390.11 102.285 389.107C102.285 385.594 100.779 385.029 94.4413 386.158Z" fill="white"/>
<path d="M274.225 453.278C274.225 454.156 334.718 622.834 334.969 622.646C335.282 622.27 329.195 592.599 325.744 578.046C318.088 545.552 309.24 515.003 295.749 474.669L288.47 452.902H281.316C277.425 452.902 274.225 453.09 274.225 453.278Z" fill="white"/>
<path d="M302.84 453.592C303.53 454.721 315.264 463.252 321.163 466.89C324.301 468.835 330.137 472.285 334.215 474.543C338.294 476.864 341.746 478.809 341.871 478.934C342.185 479.248 336.725 496.373 333.839 504.026C332.584 507.476 331.329 512.055 331.078 514.188C330.639 518.077 330.639 518.14 332.145 518.14C333.023 518.14 334.529 518.328 335.533 518.516L337.416 518.893L337.792 515.192C337.981 512.996 339.236 508.793 340.93 504.59C342.499 500.764 344.82 494.428 346.138 490.476C347.393 486.524 348.586 483.2 348.711 483.074C348.774 482.949 351.974 484.831 355.802 487.34C359.63 489.786 363.081 491.794 363.395 491.794C363.709 491.794 363.96 492.107 363.96 492.546C363.96 492.923 361.826 500.764 359.191 509.922C353.292 530.435 345.448 561.423 342.059 577.544L339.487 589.588V612.296V635.003L345.762 689.954C349.213 720.189 352.162 746.849 352.413 749.17C352.853 753.185 353.919 755.694 353.919 752.557C353.919 749.233 355.99 729.41 358.061 713.226C363.144 673.017 371.302 624.151 385.295 550.759C392.888 510.989 403.431 455.913 403.807 454.282L404.121 452.902H390.378C377.828 452.902 376.51 453.027 376.008 453.968C375.694 454.596 373.372 461.935 370.862 470.278C368.352 478.683 366.031 485.521 365.78 485.521C365.466 485.521 362.077 483.325 358.187 480.691C354.296 478.056 351.033 475.861 350.907 475.798C350.656 475.61 355.739 461.182 357.434 457.356C358.249 455.536 358.94 453.78 358.94 453.466C358.94 453.153 357.245 452.902 355.174 452.902C350.719 452.902 351.158 452.337 347.017 463.691L344.13 471.658L334.404 466.012C329.07 462.938 322.167 458.673 319.092 456.666L313.382 452.902H307.86C304.095 452.902 302.526 453.09 302.84 453.592Z" fill="white"/>
</g>
<defs>
<clipPath id="clip0">
<rect width="748" height="754" fill="white"/>
</clipPath>
</defs>
</svg>
