<svg width="59" height="59" viewBox="0 0 59 59" fill="none" xmlns="http://www.w3.org/2000/svg">
<path d="M14 0C6.28413 0 0 6.28413 0 14V44.8C0 52.5159 6.28413 58.8 14 58.8H44.8C52.5159 58.8 58.8 52.5159 58.8 44.8V14C58.8 6.28413 52.5159 0 44.8 0H14ZM14 2.8H44.8C51.0029 2.8 56 7.79707 56 14V44.8C56 51.0029 51.0029 56 44.8 56H14C7.79707 56 2.8 51.0029 2.8 44.8V14C2.8 7.79707 7.79707 2.8 14 2.8ZM29.4 9.8C17.9287 9.8 8.4 17.8141 8.4 27.948C8.4 34.1917 12.1537 39.5427 17.6012 42.7848C16.7714 44.1012 15.7272 45.4638 14.4211 46.7387C14.2077 46.9479 14.0668 47.2199 14.0191 47.515C13.9713 47.81 14.0193 48.1126 14.1559 48.3784C14.2924 48.6442 14.5105 48.8594 14.7782 48.9924C15.0458 49.1254 15.349 49.1693 15.6434 49.1176C18.8748 48.5443 22.2527 47.3567 25.0305 45.6367C26.4404 45.9 27.8854 46.0961 29.4 46.0961C40.8713 46.0961 50.4 38.082 50.4 27.948C50.4 17.8141 40.8714 9.8 29.4 9.8ZM29.4 12.6C39.5782 12.6 47.6 19.5852 47.6 27.948C47.6 36.3109 39.5783 43.2961 29.4 43.2961C27.9103 43.2961 26.4671 43.1275 25.066 42.8367C24.8848 42.7993 24.698 42.7981 24.5164 42.8333C24.3348 42.8685 24.1619 42.9394 24.0078 43.0418C22.7115 43.9003 21.1342 44.607 19.477 45.191C19.9911 44.4952 20.5309 43.8112 20.8906 43.0309C21.043 42.6998 21.0603 42.3223 20.9388 41.9787C20.8172 41.635 20.5665 41.3523 20.2398 41.1906C14.7726 38.4923 11.2 33.5547 11.2 27.948C11.2 19.5852 19.2217 12.6 29.4 12.6Z" fill="white"/>
</svg>
