<svg width="50" height="54" viewBox="0 0 50 54" fill="none" xmlns="http://www.w3.org/2000/svg">
<g clip-path="url(#clip0_3:25)">
<path d="M10.9536 38.1973C10.1691 38.1973 9.54053 37.5557 9.54053 36.7647C9.54053 35.9736 10.1777 35.332 10.9536 35.332H20.2687C21.0533 35.332 21.6818 35.9736 21.6818 36.7647C21.6818 37.5557 21.049 38.1973 20.2687 38.1973H10.9536ZM26.4846 34.0444C26.0685 34.0444 25.7131 33.6841 25.7131 33.2446C25.7131 32.8228 26.0685 32.4624 26.4846 32.4624H28.5002C28.5176 32.4624 28.5609 32.4624 28.5782 32.4624C29.2891 32.48 29.922 32.6206 30.4551 32.9634C31.049 33.3457 31.4824 33.9258 31.7209 34.7871C31.7209 34.8047 31.7209 34.8267 31.7425 34.8486L31.9419 35.6484H49.2328C49.6662 35.6484 50.0043 36.0088 50.0043 36.4307C50.0043 36.5098 49.9827 36.5889 49.9653 36.6724L47.9497 44.9077C47.8717 45.2681 47.5553 45.5098 47.1998 45.5098H34.5514C34.8288 46.5513 35.1062 47.1138 35.479 47.3731C35.9341 47.6719 36.723 47.6939 38.0494 47.6719H38.0668H47.0004C47.4339 47.6719 47.772 48.0322 47.772 48.4541C47.772 48.8936 47.4166 49.2363 47.0004 49.2363H38.0624C36.4196 49.2539 35.414 49.2144 34.6034 48.6738C33.7711 48.1113 33.3377 47.1533 32.9042 45.4087L30.2557 35.2441C30.2557 35.2222 30.2557 35.2222 30.2384 35.2046C30.1214 34.7651 29.922 34.4619 29.6446 34.3037C29.3671 34.1235 28.9944 34.0444 28.5566 34.0444C28.5349 34.0444 28.5176 34.0444 28.4959 34.0444H26.4846ZM44.6857 50.1548C45.7347 50.1548 46.5843 51.0161 46.5843 52.0796C46.5843 53.1431 45.7347 54.0044 44.6857 54.0044C43.6368 54.0044 42.7872 53.1431 42.7872 52.0796C42.7872 51.0161 43.6368 50.1548 44.6857 50.1548ZM36.3632 50.1548C37.4122 50.1548 38.2618 51.0161 38.2618 52.0796C38.2618 53.1431 37.4122 54.0044 36.3632 54.0044C35.3143 54.0044 34.4647 53.1431 34.4647 52.0796C34.4647 51.0161 35.3186 50.1548 36.3632 50.1548ZM10.9536 14.7568C10.1691 14.7568 9.54053 14.1108 9.54053 13.3242C9.54053 12.5332 10.1777 11.8916 10.9536 11.8916H32.8522C33.6368 11.8916 34.2653 12.5332 34.2653 13.3242C34.2653 14.1152 33.6324 14.7568 32.8522 14.7568H10.9536ZM3.28132 0H40.3988C41.3047 0 42.1283 0.373535 42.7178 0.971191C43.3073 1.56885 43.6758 2.40381 43.6758 3.32227V29.6807H40.8583V3.33545C40.8583 3.20801 40.8062 3.08936 40.7239 3.00147C40.6372 2.91797 40.5202 2.86523 40.3945 2.86523H3.28132C3.15561 2.86523 3.03858 2.91797 2.95189 3.00147C2.86519 3.08496 2.82185 3.20801 2.82185 3.33545V46.6963C2.82185 46.8237 2.87386 46.9424 2.95622 47.0303C3.03858 47.1182 3.15561 47.1665 3.28565 47.1665H27.1478C27.4122 48.2168 27.7113 49.1353 28.1144 50.0098H3.28132C2.37538 50.0098 1.5518 49.6362 0.962289 49.0386C0.368444 48.4453 0 47.6104 0 46.6919V3.32666C0 2.4082 0.368444 1.56885 0.957954 0.971191C1.54746 0.373535 2.37538 0 3.28132 0ZM10.9536 26.4771C10.1691 26.4771 9.54053 25.8355 9.54053 25.0444C9.54053 24.2534 10.1777 23.6118 10.9536 23.6118H32.8522C33.6368 23.6118 34.2653 24.2534 34.2653 25.0444C34.2653 25.8355 33.6324 26.4771 32.8522 26.4771H10.9536Z" fill="white"/>
</g>
<defs>
<clipPath id="clip0_3:25">
<rect width="50" height="54" fill="white"/>
</clipPath>
</defs>
</svg>
