<svg width="61" height="61" viewBox="0 0 61 61" fill="none" xmlns="http://www.w3.org/2000/svg">
<g clip-path="url(#clip0_4_638)">
<path d="M8.93627 8.93667C13.9274 3.9459 20.4947 0.840209 27.5191 0.148809C34.5434 -0.54259 41.5902 1.22308 47.4586 5.14495C53.327 9.06682 57.654 14.9022 59.7022 21.6568C61.7504 28.4114 61.3931 35.6672 58.6911 42.1879C55.9892 48.7085 51.1098 54.0906 44.8845 57.4169C38.6591 60.7432 31.473 61.808 24.5505 60.4298C17.6281 59.0516 11.3977 55.3156 6.92107 49.8586C2.44441 44.4016 -0.00154409 37.5612 -2.08396e-06 30.5029C-0.00373015 26.4968 0.783773 22.5295 2.3173 18.8285C3.85083 15.1276 6.10019 11.766 8.93627 8.93667V8.93667ZM38.416 19.3623L41.6579 22.6092C42.0263 22.981 42.2329 23.4833 42.2329 24.0067C42.2329 24.5301 42.0263 25.0324 41.6579 25.4042L36.5394 30.5029L41.6579 35.6214C42.0263 35.9932 42.2329 36.4955 42.2329 37.0189C42.2329 37.5423 42.0263 38.0446 41.6579 38.4164L38.416 41.6583C38.0442 42.0267 37.5419 42.2333 37.0185 42.2333C36.4951 42.2333 35.9928 42.0267 35.621 41.6583L30.5025 36.5398L25.384 41.6583C25.0121 42.0267 24.5099 42.2333 23.9864 42.2333C23.463 42.2333 22.9608 42.0267 22.5889 41.6583L19.3619 38.4164C18.9936 38.0446 18.7869 37.5423 18.7869 37.0189C18.7869 36.4955 18.9936 35.9932 19.3619 35.6214L24.4655 30.5029L19.3619 25.3844C18.9936 25.0125 18.7869 24.5103 18.7869 23.9868C18.7869 23.4634 18.9936 22.9612 19.3619 22.5893L22.5889 19.3623C22.9608 18.994 23.463 18.7873 23.9864 18.7873C24.5099 18.7873 25.0121 18.994 25.384 19.3623L30.5025 24.4659L35.621 19.3623C35.9928 18.994 36.4951 18.7873 37.0185 18.7873C37.5419 18.7873 38.0442 18.994 38.416 19.3623ZM30.5025 5.23308C24.655 5.23335 18.9886 7.26113 14.4686 10.9709C9.94868 14.6807 6.85487 19.8429 5.71434 25.5781C4.57381 31.3132 5.45714 37.2664 8.21381 42.4232C10.9705 47.5801 15.43 51.6216 20.8324 53.8591C26.2348 56.0966 32.2459 56.3916 37.8415 54.694C43.437 52.9964 48.2709 49.4111 51.5194 44.549C54.7679 39.6869 56.23 33.8489 55.6566 28.0296C55.0833 22.2103 52.5099 16.7699 48.375 12.6353C46.0292 10.2866 43.2431 8.42379 40.1762 7.15359C37.1093 5.88339 33.822 5.23076 30.5025 5.23308V5.23308Z" fill="black"/>
</g>
<defs>
<clipPath id="clip0_4_638">
<rect width="61" height="61" fill="white"/>
</clipPath>
</defs>
</svg>
